<svg xmlns="http://www.w3.org/2000/svg" width="32" height="32" viewBox="250 440 260 130">
 <ellipse cx="375" cy="470.93" rx="110" ry="55" fill="#fff"/>
 <ellipse transform="matrix(.99871 -.050737 .061383 .99811 0 0)" cx="279.02" cy="490.61" rx="50.082" ry="47.682" fill="#69b628"/>
 <ellipse transform="matrix(.99874 -.050096 .062168 .99807 0 0)" cx="284.73" cy="492.87" rx="38.501" ry="36.194" fill="#4d4d4d"/>
 <ellipse transform="matrix(.9986 -.052883 .058895 .99826 0 0)" cx="306.73" cy="497.68" rx="9.6355" ry="10.093" fill="#f9f9f9"/>
 <ellipse transform="matrix(.99875 -.050026 .062254 .99806 0 0)" cx="406.61" cy="496.88" rx="50.794" ry="47.684" fill="#69b628"/>
 <ellipse transform="matrix(.99877 -.049637 .062742 .99803 0 0)" cx="399.75" cy="498.54" rx="38.857" ry="36.195" fill="#4d4d4d"/>
 <ellipse transform="matrix(.9986 -.052883 .058895 .99826 0 0)" cx="379.9" cy="501.9" rx="9.6355" ry="10.093" fill="#f9f9f9"/>
 <ellipse transform="matrix(.9987 -.050973 .0611 .99813 0 0)" cx="407.1" cy="511.34" rx="13.563" ry="13.695" fill="#f9f9f9"/>
 <ellipse transform="matrix(.99875 -.049936 .062366 .99805 0 0)" cx="391.88" cy="505.18" rx="7.3142" ry="7.2359" fill="#f9f9f9"/>
 <ellipse transform="matrix(-.99875 -.049936 -.062366 .99805 0 0)" cx="-452.04" cy="463.91" rx="7.3142" ry="7.2359" fill="#f9f9f9"/>
</svg>